# xmcd
#
# Track frame offsets: 
#        183
#        12795
#        24500
#        35980
#        49015
#        62393
#        76913
#        88083
#        100013
#        114450
#        126470
#        136895
#        150298
#        162148
#        175538
#        189050
#        204533
#        217170
#        231965
#        243415
#
# Disc length: 3392 seconds
#
# Revision: 0
# Processed by: cddbd v1.5PL3 Copyright (c) Steve Scherf et al.
# Submitted via: ExactAudioCopy v0.95a5
#
DISCID=fc0d3e14
DTITLE=Andy Williams - Best of Artist
DYEAR=1900
DGENRE=Country
TTITLE0=Moon River
TTITLE1=Charade
TTITLE2=More
TTITLE3=Days of Wine and Roses
TTITLE4=Danny Boy
TTITLE5=On the Street Where You Live
TTITLE6=Red Roses for a Blue Lady
TTITLE7=Music to Watch Girls By
TTITLE8=Love Story
TTITLE9=Canadian Sunset
TTITLE10=I Could Have Danced All Night
TTITLE11=Hello Dolly
TTITLE12=I'll Never Stop Loving You
TTITLE13=Anniversary Song
TTITLE14=Something
TTITLE15=Your Song
TTITLE16=It's Impossible
TTITLE17=We've Only Just Begun
TTITLE18=Rose Garden
TTITLE19=The Hawaiian Wedding Song
EXTD=
EXTT0=
EXTT1=
EXTT2=
EXTT3=
EXTT4=
EXTT5=
EXTT6=
EXTT7=
EXTT8=
EXTT9=
EXTT10=
EXTT11=
EXTT12=
EXTT13=
EXTT14=
EXTT15=
EXTT16=
EXTT17=
EXTT18=
EXTT19=
PLAYORDER=
